Coordinates
version=1
nRows=4
nColumns=172
inDegrees=yes

Units are S.I. units (second, meters, Newtons, ...)
Angles are in degrees.

endheader
time	pelvis_tilt	pelvis_list	pelvis_rotation	pelvis_tx	pelvis_ty	pelvis_tz	hip_flexion_r	hip_adduction_r	hip_rotation_r	knee_angle_r	knee_angle_r_beta	ankle_angle_r	subtalar_angle_r	mtp_angle_r	hip_flexion_l	hip_adduction_l	hip_rotation_l	knee_angle_l	knee_angle_l_beta	ankle_angle_l	subtalar_angle_l	mtp_angle_l	Abs_FE	Abs_LB	Abs_AR	L5_S1_FE	L5_S1_LB	L5_S1_AR	L4_L5_FE	L4_L5_LB	L4_L5_AR	L3_L4_FE	L3_L4_LB	L3_L4_AR	L2_L3_FE	L2_L3_LB	L2_L3_AR	L1_L2_FE	L1_L2_LB	L1_L2_AR	T12_L1_FE	T12_L1_LB	T12_L1_AR	T11_T12_FE	T11_T12_LB	T11_T12_AR	T10_T11_FE	T10_T11_LB	T10_T11_AR	T9_T10_FE	T9_T10_LB	T9_T10_AR	T8_T9_FE	T8_T9_LB	T8_T9_AR	T7_T8_FE	T7_T8_LB	T7_T8_AR	T6_T7_FE	T6_T7_LB	T6_T7_AR	T5_T6_FE	T5_T6_LB	T5_T6_AR	T4_T5_FE	T4_T5_LB	T4_T5_AR	T3_T4_FE	T3_T4_LB	T3_T4_AR	T2_T3_FE	T2_T3_LB	T2_T3_AR	T1_T2_FE	T1_T2_LB	T1_T2_AR	T1_head_neck_FE	T1_head_neck_LB	T1_head_neck_AR	T12_r12R_X	T12_r12R_Y	T12_r12R_Z	T11_r11R_X	T11_r11R_Y	T11_r11R_Z	T10_r10R_X	T10_r10R_Y	T10_r10R_Z	T9_r9R_X	T9_r9R_Y	T9_r9R_Z	T8_r8R_X	T8_r8R_Y	T8_r8R_Z	T7_r7R_X	T7_r7R_Y	T7_r7R_Z	T6_r6R_X	T6_r6R_Y	T6_r6R_Z	T5_r5R_X	T5_r5R_Y	T5_r5R_Z	T4_r4R_X	T4_r4R_Y	T4_r4R_Z	T3_r3R_X	T3_r3R_Y	T3_r3R_Z	T2_r2R_X	T2_r2R_Y	T2_r2R_Z	T1_r1R_X	T1_r1R_Y	T1_r1R_Z	T12_r12L_X	T12_r12L_Y	T12_r12L_Z	T11_r11L_X	T11_r11L_Y	T11_r11L_Z	T10_r10L_X	T10_r10L_Y	T10_r10L_Z	T9_r9L_X	T9_r9L_Y	T9_r9L_Z	T8_r8L_X	T8_r8L_Y	T8_r8L_Z	T7_r7L_X	T7_r7L_Y	T7_r7L_Z	T6_r6L_X	T6_r6L_Y	T6_r6L_Z	T5_r5L_X	T5_r5L_Y	T5_r5L_Z	T4_r4L_X	T4_r4L_Y	T4_r4L_Z	T3_r3L_X	T3_r3L_Y	T3_r3L_Z	T2_r2L_X	T2_r2L_Y	T2_r2L_Z	T1_r1L_X	T1_r1L_Y	T1_r1L_Z	SternumRotZ	SternumRotX	SternumRotY	SternumX	SternumY	SternumZ	shoulder_elv_r	shoulder_rot_r	elv_angle_r	elbow_flex_r	pro_sup_r	wrist_flex_r	wrist_dev_r	shoulder_elv_l	shoulder_rot_l	elv_angle_l	elbow_flex_l	pro_sup_l	wrist_flex_l	wrist_dev_l
      2.51000000	    -23.09621800	     -5.54681277	     -3.97867751	      0.45175889	      1.17041619	     -0.18763924	     67.45431144	      9.81754220	      4.45197981	     86.00662297	      1.50109875	      0.13421603	    -17.70231421	      0.00000000	     27.34011005	    -10.24127508	      4.62486736	     42.16619655	      0.73593896	    -18.88070868	    -16.00920396	      0.00000000	      0.00000000	      0.00000000	      0.00000000	    -22.84972061	      3.28116095	      6.65191508	    -17.45057014	      0.84857812	      1.25018189	    -13.07705214	      0.01084557	     -1.27539823	     -9.26449519	     -0.11427053	     -2.02396314	     -6.32821370	     -0.19671054	     -2.02118843	     -0.98183635	      0.00518367	     -1.42941726	      2.33347748	      0.06959711	     -0.75568769	      4.07327376	     -0.02051455	     -0.24981105	      4.93429269	     -0.04760606	      0.10029452	      6.05391784	     -0.14188467	      0.36122973	      7.05462205	     -0.19277573	      0.52549146	      7.21951971	      0.02909837	      0.47061515	      6.08406062	      0.75508361	      0.11226051	      2.62889216	      2.57891949	     -0.49043790	     -4.27696862	      5.80474907	     -1.04837263	    -14.65852623	     10.21748518	     -0.96681887	    -29.74409273	     15.21597864	     -1.16626420	      0.00000000	      0.00000000	      0.00000000	      0.00000000	      0.00000000	      0.00000000	      0.00000000	      0.00000000	      0.00000000	      0.00000000	      0.00000000	      0.00000000	      0.00000000	      0.00000000	      0.00000000	      0.00000000	      0.00000000	      0.00000000	      0.00000000	      0.00000000	      0.00000000	      0.00000000	      0.00000000	      0.00000000	      0.00000000	      0.00000000	      0.00000000	      0.00000000	      0.00000000	      0.00000000	      0.00000000	      0.00000000	      0.00000000	      0.00000000	      0.00000000	      0.00000000	     54.48192013	      0.00000000	      0.00000000	      0.00000000	      0.00000000	      0.00000000	      0.00000000	      0.00000000	      0.00000000	      0.00000000	      0.00000000	      0.00000000	      0.00000000	      0.00000000	      0.00000000	      0.00000000	      0.00000000	      0.00000000	      0.00000000	      0.00000000	      0.00000000	      0.00000000	      0.00000000	      0.00000000	      0.00000000	      0.00000000	      0.00000000	      0.00000000	      0.00000000	      0.00000000	      0.00000000	      0.00000000	      0.00000000	      0.00000000	      0.00000000	      0.00000000	      0.00000000	      0.00000000	      0.00000000	    -14.52761331	      5.94241470	      3.77011035	     -0.04639103	      0.05255390	     -0.01995295	     18.24704325	     -0.72162696	     53.46526611	     57.93436468	     44.59193347	      0.00000000	      0.00000000	    -36.49136477	     -6.24171393	     64.29931087	     41.10753850	     45.81508827	      0.00000000	      0.00000000
      2.52000000	    -22.98647526	     -5.34001894	     -3.74513773	      0.45214109	      1.17129335	     -0.18639040	     66.36833941	      9.71036827	      4.82104824	     83.59963951	      1.45908896	     -0.41305751	    -18.02894011	      0.00000000	     28.43383302	     -9.91617550	      5.24484286	     45.12625874	      0.78760179	    -18.51140583	    -16.09960271	      0.00000000	      0.00000000	      0.00000000	      0.00000000	    -22.89919886	      3.21007175	      6.61569325	    -17.50219660	      0.79290230	      1.22111822	    -13.12850756	     -0.03610675	     -1.29959103	     -9.31254293	     -0.15460375	     -2.04524615	     -6.36876038	     -0.23192955	     -2.03912215	     -1.01472771	     -0.02294037	     -1.44621446	      2.31325249	      0.04866274	     -0.77099230	      4.06641694	     -0.03457241	     -0.26347253	      4.94190865	     -0.05494463	      0.08847290	      6.07218517	     -0.14300295	      0.35107841	      7.08163200	     -0.18766191	      0.51693557	      7.25424568	      0.04073719	      0.46382139	      6.12452677	      0.77308677	      0.10828004	      2.67524166	      2.60209052	     -0.48830518	     -4.22006392	      5.82774089	     -1.03437352	    -14.58138938	     10.22710610	     -0.93364183	    -29.63065508	     15.18882511	     -1.11352080	      0.00000000	      0.00000000	      0.00000000	      0.00000000	      0.00000000	      0.00000000	      0.00000000	      0.00000000	      0.00000000	      0.00000000	      0.00000000	      0.00000000	      0.00000000	      0.00000000	      0.00000000	      0.00000000	      0.00000000	      0.00000000	      0.00000000	      0.00000000	      0.00000000	      0.00000000	      0.00000000	      0.00000000	      0.00000000	      0.00000000	      0.00000000	      0.00000000	      0.00000000	      0.00000000	      0.00000000	      0.00000000	      0.00000000	      0.00000000	      0.00000000	      0.00000000	     54.40250672	      0.00000000	      0.00000000	      0.00000000	      0.00000000	      0.00000000	      0.00000000	      0.00000000	      0.00000000	      0.00000000	      0.00000000	      0.00000000	      0.00000000	      0.00000000	      0.00000000	      0.00000000	      0.00000000	      0.00000000	      0.00000000	      0.00000000	      0.00000000	      0.00000000	      0.00000000	      0.00000000	      0.00000000	      0.00000000	      0.00000000	      0.00000000	      0.00000000	      0.00000000	      0.00000000	      0.00000000	      0.00000000	      0.00000000	      0.00000000	      0.00000000	      0.00000000	      0.00000000	      0.00000000	    -14.67774229	      5.97050535	      3.77769558	     -0.04660346	      0.05195339	     -0.02006052	     18.12499323	     -0.72998562	     53.30725854	     58.07885173	     44.37044888	      0.00000000	      0.00000000	    -36.42171188	     -6.24490988	     64.27184546	     41.31668871	     45.41206560	      0.00000000	      0.00000000
      2.53000000	    -22.79934954	     -4.99833368	     -3.50814926	      0.45269508	      1.17193404	     -0.18512000	     65.09987362	      9.47810173	      5.28598705	     81.16733648	      1.41663727	     -0.85908955	    -18.14063616	      0.00000000	     29.52144268	     -9.49418852	      5.66508394	     48.12093016	      0.83986867	    -18.34196515	    -16.13889148	      0.00000000	      0.00000000	      0.00000000	      0.00000000	    -22.94176168	      3.12520599	      6.59388558	    -17.55953866	      0.72097338	      1.20283603	    -13.19470989	     -0.10113565	     -1.31614537	     -9.38045675	     -0.21422806	     -2.06180511	     -6.42938263	     -0.28687306	     -2.05416119	     -1.06690839	     -0.07002115	     -1.46271122	      2.27874571	      0.01048989	     -0.78812803	      4.05182821	     -0.06402153	     -0.28091014	      4.94907209	     -0.07536593	      0.07129078	      6.09555631	     -0.15528799	      0.33383335	      7.11797015	     -0.19155262	      0.49928544	      7.30122435	      0.04618634	      0.44562439	      6.17867895	      0.78812980	      0.09023856	      2.73629961	      2.62638553	     -0.50279651	     -4.14430722	      5.85588677	     -1.03779939	    -14.47410841	     10.24585833	     -0.91258989	    -29.46336227	     15.17232007	     -1.05500717	      0.00000000	      0.00000000	      0.00000000	      0.00000000	      0.00000000	      0.00000000	      0.00000000	      0.00000000	      0.00000000	      0.00000000	      0.00000000	      0.00000000	      0.00000000	      0.00000000	      0.00000000	      0.00000000	      0.00000000	      0.00000000	      0.00000000	      0.00000000	      0.00000000	      0.00000000	      0.00000000	      0.00000000	      0.00000000	      0.00000000	      0.00000000	      0.00000000	      0.00000000	      0.00000000	      0.00000000	      0.00000000	      0.00000000	      0.00000000	      0.00000000	      0.00000000	     54.25447037	      0.00000000	      0.00000000	      0.00000000	      0.00000000	      0.00000000	      0.00000000	      0.00000000	      0.00000000	      0.00000000	      0.00000000	      0.00000000	      0.00000000	      0.00000000	      0.00000000	      0.00000000	      0.00000000	      0.00000000	      0.00000000	      0.00000000	      0.00000000	      0.00000000	      0.00000000	      0.00000000	      0.00000000	      0.00000000	      0.00000000	      0.00000000	      0.00000000	      0.00000000	      0.00000000	      0.00000000	      0.00000000	      0.00000000	      0.00000000	      0.00000000	      0.00000000	      0.00000000	      0.00000000	    -14.84368799	      6.02684478	      3.78656558	     -0.04691200	      0.05127802	     -0.01998613	     17.82901763	     -0.72665804	     53.12575198	     58.13534726	     44.29249879	      0.00000000	      0.00000000	    -36.31694996	     -6.22361141	     64.14444035	     41.55470317	     45.30484271	      0.00000000	      0.00000000
      2.54000000	    -22.80529542	     -4.93871661	     -3.24259679	      0.45307256	      1.17206465	     -0.18369759	     63.92723923	      9.43464407	      5.55665366	     78.55309198	      1.37101009	     -1.75824976	    -18.36606873	      0.00000000	     31.00806957	     -9.34999306	      6.27621146	     51.32962324	      0.89587093	    -18.19981339	    -16.40013566	      0.00000000	      0.00000000	      0.00000000	      0.00000000	    -22.89954174	      3.11318334	      6.58549309	    -17.55119202	      0.70518725	      1.19522571	    -13.21978539	     -0.11923274	     -1.32345309	     -9.42979910	     -0.23403700	     -2.06910910	     -6.48566133	     -0.30802883	     -2.06074853	     -1.12732609	     -0.09018108	     -1.46980789	      2.23346223	     -0.00723307	     -0.79537116	      4.02900516	     -0.07839608	     -0.28806269	      4.95327526	     -0.08549463	      0.06452683	      6.11876716	     -0.16119766	      0.32729172	      7.15485729	     -0.19278096	      0.49277245	      7.34726383	      0.05050784	      0.43913215	      6.22770829	      0.79770139	      0.08441776	      2.78753697	      2.63794582	     -0.50565091	     -4.07631945	      5.85801122	     -1.03345596	    -14.35775749	     10.21710293	     -0.89611395	    -29.24261343	     15.08846774	     -1.02556177	      0.00000000	      0.00000000	      0.00000000	      0.00000000	      0.00000000	      0.00000000	      0.00000000	      0.00000000	      0.00000000	      0.00000000	      0.00000000	      0.00000000	      0.00000000	      0.00000000	      0.00000000	      0.00000000	      0.00000000	      0.00000000	      0.00000000	      0.00000000	      0.00000000	      0.00000000	      0.00000000	      0.00000000	      0.00000000	      0.00000000	      0.00000000	      0.00000000	      0.00000000	      0.00000000	      0.00000000	      0.00000000	      0.00000000	      0.00000000	      0.00000000	      0.00000000	     53.98421560	      0.00000000	      0.00000000	      0.00000000	      0.00000000	      0.00000000	      0.00000000	      0.00000000	      0.00000000	      0.00000000	      0.00000000	      0.00000000	      0.00000000	      0.00000000	      0.00000000	      0.00000000	      0.00000000	      0.00000000	      0.00000000	      0.00000000	      0.00000000	      0.00000000	      0.00000000	      0.00000000	      0.00000000	      0.00000000	      0.00000000	      0.00000000	      0.00000000	      0.00000000	      0.00000000	      0.00000000	      0.00000000	      0.00000000	      0.00000000	      0.00000000	      0.00000000	      0.00000000	      0.00000000	    -15.25036124	      6.04081128	      3.79156696	     -0.04757384	      0.05038477	     -0.02028469	     17.82120827	     -0.72087728	     53.22339727	     58.16520363	     44.31742284	      0.00000000	      0.00000000	    -36.15196883	     -6.03932285	     64.16372926	     42.00215211	     45.41291049	      0.00000000	      0.00000000
